<svg xmlns="http://www.w3.org/2000/svg" fill="none" viewBox="0 0 24 24" stroke-width="1.5" stroke="currentColor" class="w-6 h-6">
  <path stroke-linecap="round" stroke-linejoin="round" d="M15.362 5.214A8.252 8.252 0 0112 21 8.25 8.25 0 016.038 7.048 8.287 8.287 0 009 9.6a8.983 8.983 0 013.362-1.44m0 0c-3.037-1.01-5.931-2.226-8.4-4.145A8.964 8.964 0 0112 2.25c2.529 0 4.826 1.017 6.438 2.714m0 0a8.287 8.287 0 00-3.362 1.44m6.438-2.714a8.964 8.964 0 01-2.714 6.438m0 0a8.287 8.287 0 00-1.44 3.362m0 0a8.964 8.964 0 016.438 2.714M12 10.5h.008v.008H12V10.5z" />
</svg>
